<svg width="1004" height="222" viewBox="0 0 1004 222" fill="none" xmlns="http://www.w3.org/2000/svg">
<path d="M328.556 12.8229H275.091V177.351H328.326C380.871 177.351 414.873 147.497 414.873 94.153C414.873 40.8092 381.078 12.8229 328.556 12.8229ZM325.519 154.058H302.306V36.0815H325.519C367.274 36.0815 386.737 57.2298 386.737 94.13C386.737 131.03 367.274 154.058 325.519 154.058Z" fill="#1B141B"/>
<path d="M487.548 52.7786C453.074 52.7786 425.398 77.9285 425.398 115.532C425.398 155.257 453.074 179.934 487.548 179.934C522.022 179.934 549.698 154.553 549.698 115.532C549.698 76.5099 522.482 52.7786 487.548 52.7786ZM487.548 157.598C466.199 157.598 451.429 140.439 451.429 115.52C451.429 92.0197 465.968 75.1028 487.548 75.1028C509.128 75.1028 523.667 92.0312 523.667 115.52C523.667 140.67 508.897 157.598 487.548 157.598Z" fill="#1B141B"/>
<path d="M625.73 52.7901H625.718L625.742 52.767C606.969 52.767 593.857 61.2308 587.507 71.09V55.5807H562.178V222H587.507V161.369C594.306 171.954 607.669 179.945 625.258 179.945C655.753 179.945 681.783 157.148 681.783 115.543C681.783 73.938 656.454 52.7901 625.73 52.7901ZM621.512 158.302C602.278 158.302 587.036 142.307 587.036 115.532C587.036 90.1517 601.346 74.4111 621.512 74.4111C640.515 74.4111 655.511 88.7447 655.511 115.532C655.511 142.319 640.515 158.302 621.512 158.302Z" fill="#1B141B"/>
<path d="M759.443 52.7901H759.431L759.455 52.767C740.682 52.767 727.564 61.2308 721.214 71.09V55.5807H695.885V222H721.214V161.369C728.018 171.954 741.383 179.945 758.972 179.945C789.461 179.945 815.496 157.148 815.496 115.543C815.496 73.938 790.167 52.7901 759.443 52.7901ZM755.219 158.302C735.987 158.302 720.743 142.307 720.743 115.532C720.743 90.1517 735.057 74.4111 755.219 74.4111C774.222 74.4111 789.219 88.7447 789.219 115.532C789.219 142.319 774.222 158.302 755.219 158.302Z" fill="#1B141B"/>
<path d="M887.465 52.767L887.453 52.7901V52.767C856.027 52.767 827.194 76.9714 827.194 115.52C827.194 154.069 855.338 179.922 889.114 179.922C912.793 179.922 938.358 168.645 945.639 142.549H920.31C914.213 154.3 902.02 158.302 889.815 158.302C871.296 158.302 855.568 145.363 853.224 124.215H946.799V118.345C946.799 74.6304 918.89 52.767 887.465 52.767ZM852.97 104.012C855.085 85.435 869.628 74.1573 886.969 74.1573C905.259 74.1573 918.86 85.9081 920.286 104.012H852.97Z" fill="#1B141B"/>
<path d="M986.182 157.194V12.7882H960.853V153.435C960.853 166.639 971.541 177.351 984.713 177.351H1004V157.194L986.182 157.194Z" fill="#1B141B"/>
<path d="M118.261 0V12.0963C144.717 19.6838 164.087 44.0725 164.087 73.0162C164.087 101.96 144.717 126.371 118.261 133.936V190.37C162.972 181.848 196.767 142.48 196.767 95.1792C196.767 47.878 162.972 8.52162 118.261 0Z" fill="#1B141B"/>
<path d="M32.6795 117.365V117.354C32.6795 88.3988 52.0504 63.9983 78.5066 56.434V0.011541C33.8068 8.52162 0 47.8894 0 95.1906C0 142.492 33.8068 181.859 78.5066 190.381V178.285C52.0503 170.697 32.6795 146.309 32.6795 117.365Z" fill="#1B141B"/>
<path d="M80.796 62.5573L73.0778 107.852L115.581 128.17L123.299 82.8522L80.796 62.5573Z" fill="#1B141B"/>
</svg>
